<mxfile host="app.diagrams.net" modified="2022-08-12T06:23:47.770Z" agent="5.0 (Macintosh; Intel Mac OS X 10_15_7) AppleWebKit/537.36 (KHTML, like Gecko) Chrome/104.0.5112.81 Safari/537.36" etag="MvpbQ8NZbZLt6AB8m6lb" version="20.2.3" type="github">
  <diagram id="prtHgNgQTEPvFCAcTncT" name="Page-1">
    <mxGraphModel dx="1175" dy="862" grid="1" gridSize="10" guides="1" tooltips="1" connect="1" arrows="1" fold="1" page="1" pageScale="1" pageWidth="827" pageHeight="1169" math="0" shadow="0">
      <root>
        <mxCell id="0" />
        <mxCell id="1" parent="0" />
        <mxCell id="dNxyNK7c78bLwvsdeMH5-19" value="Feature" style="swimlane;html=1;childLayout=stackLayout;resizeParent=1;resizeParentMax=0;horizontal=0;startSize=20;horizontalStack=0;" parent="1" vertex="1">
          <mxGeometry x="120" y="120" width="450" height="670" as="geometry" />
        </mxCell>
        <mxCell id="dNxyNK7c78bLwvsdeMH5-20" value="Presentation" style="swimlane;html=1;startSize=20;horizontal=0;" parent="dNxyNK7c78bLwvsdeMH5-19" vertex="1">
          <mxGeometry x="20" width="430" height="160" as="geometry">
            <mxRectangle x="20" width="430" height="30" as="alternateBounds" />
          </mxGeometry>
        </mxCell>
        <mxCell id="dNxyNK7c78bLwvsdeMH5-24" value="View" style="rounded=0;whiteSpace=wrap;html=1;fontFamily=Helvetica;fontSize=12;fontColor=#000000;align=center;" parent="dNxyNK7c78bLwvsdeMH5-20" vertex="1">
          <mxGeometry x="50" y="20" width="350" height="40" as="geometry" />
        </mxCell>
        <mxCell id="hKaPWABOODFKhtMvyGc_-38" style="edgeStyle=orthogonalEdgeStyle;rounded=0;orthogonalLoop=1;jettySize=auto;html=1;startArrow=none;startFill=0;endArrow=openThin;endFill=0;elbow=vertical;" edge="1" parent="dNxyNK7c78bLwvsdeMH5-20" source="hKaPWABOODFKhtMvyGc_-29" target="dNxyNK7c78bLwvsdeMH5-24">
          <mxGeometry relative="1" as="geometry" />
        </mxCell>
        <mxCell id="hKaPWABOODFKhtMvyGc_-29" value="Widget" style="rounded=0;whiteSpace=wrap;html=1;fontFamily=Helvetica;fontSize=12;fontColor=#000000;align=center;" vertex="1" parent="dNxyNK7c78bLwvsdeMH5-20">
          <mxGeometry x="50" y="80" width="350" height="30" as="geometry" />
        </mxCell>
        <mxCell id="dNxyNK7c78bLwvsdeMH5-21" value="Business Logic" style="swimlane;html=1;startSize=20;horizontal=0;" parent="dNxyNK7c78bLwvsdeMH5-19" vertex="1">
          <mxGeometry x="20" y="160" width="430" height="150" as="geometry" />
        </mxCell>
        <mxCell id="dNxyNK7c78bLwvsdeMH5-26" value="Controller&lt;br&gt;&lt;br&gt;" style="rounded=0;whiteSpace=wrap;html=1;fontFamily=Helvetica;fontSize=12;fontColor=#000000;align=center;" parent="dNxyNK7c78bLwvsdeMH5-21" vertex="1">
          <mxGeometry x="87" y="40" width="100" height="60" as="geometry" />
        </mxCell>
        <mxCell id="hKaPWABOODFKhtMvyGc_-6" value="State" style="rounded=0;whiteSpace=wrap;html=1;fillColor=#f8cecc;strokeColor=#b85450;" vertex="1" parent="dNxyNK7c78bLwvsdeMH5-21">
          <mxGeometry x="87" y="80" width="100" height="20" as="geometry" />
        </mxCell>
        <mxCell id="hKaPWABOODFKhtMvyGc_-55" value="Internal Update&lt;br&gt;(6)" style="edgeStyle=orthogonalEdgeStyle;rounded=0;orthogonalLoop=1;jettySize=auto;html=1;entryX=0.5;entryY=1;entryDx=0;entryDy=0;startArrow=none;startFill=0;endArrow=openThin;endFill=0;elbow=vertical;fillColor=#f8cecc;strokeColor=#b85450;" edge="1" parent="dNxyNK7c78bLwvsdeMH5-21" source="hKaPWABOODFKhtMvyGc_-53" target="hKaPWABOODFKhtMvyGc_-6">
          <mxGeometry relative="1" as="geometry">
            <Array as="points">
              <mxPoint x="342" y="130" />
              <mxPoint x="137" y="130" />
            </Array>
          </mxGeometry>
        </mxCell>
        <mxCell id="hKaPWABOODFKhtMvyGc_-53" value="Update Event&lt;br&gt;(5)" style="ellipse;whiteSpace=wrap;html=1;aspect=fixed;" vertex="1" parent="dNxyNK7c78bLwvsdeMH5-21">
          <mxGeometry x="310" y="38" width="64" height="64" as="geometry" />
        </mxCell>
        <mxCell id="hKaPWABOODFKhtMvyGc_-39" value="Model" style="swimlane;html=1;startSize=20;horizontal=0;" vertex="1" parent="dNxyNK7c78bLwvsdeMH5-19">
          <mxGeometry x="20" y="310" width="430" height="160" as="geometry" />
        </mxCell>
        <mxCell id="hKaPWABOODFKhtMvyGc_-48" value="Data" style="rounded=0;whiteSpace=wrap;html=1;" vertex="1" parent="hKaPWABOODFKhtMvyGc_-39">
          <mxGeometry x="155" y="60" width="120" height="40" as="geometry" />
        </mxCell>
        <mxCell id="dNxyNK7c78bLwvsdeMH5-22" value="Repository" style="swimlane;html=1;startSize=20;horizontal=0;" parent="dNxyNK7c78bLwvsdeMH5-19" vertex="1">
          <mxGeometry x="20" y="470" width="430" height="200" as="geometry" />
        </mxCell>
        <mxCell id="hKaPWABOODFKhtMvyGc_-15" value="Local Repository" style="whiteSpace=wrap;html=1;aspect=fixed;" vertex="1" parent="dNxyNK7c78bLwvsdeMH5-22">
          <mxGeometry x="320" y="10" width="80" height="80" as="geometry" />
        </mxCell>
        <mxCell id="hKaPWABOODFKhtMvyGc_-16" value="Remote&lt;br&gt;Repository" style="whiteSpace=wrap;html=1;aspect=fixed;" vertex="1" parent="dNxyNK7c78bLwvsdeMH5-22">
          <mxGeometry x="320" y="110" width="80" height="80" as="geometry" />
        </mxCell>
        <mxCell id="hKaPWABOODFKhtMvyGc_-20" style="edgeStyle=orthogonalEdgeStyle;rounded=0;orthogonalLoop=1;jettySize=auto;html=1;entryX=0;entryY=0.5;entryDx=0;entryDy=0;endArrow=classicThin;endFill=1;exitX=0.5;exitY=1;exitDx=0;exitDy=0;" edge="1" parent="dNxyNK7c78bLwvsdeMH5-22" source="hKaPWABOODFKhtMvyGc_-17" target="hKaPWABOODFKhtMvyGc_-16">
          <mxGeometry relative="1" as="geometry" />
        </mxCell>
        <mxCell id="hKaPWABOODFKhtMvyGc_-21" style="edgeStyle=orthogonalEdgeStyle;rounded=0;orthogonalLoop=1;jettySize=auto;html=1;endArrow=classicThin;endFill=1;exitX=0.5;exitY=0;exitDx=0;exitDy=0;" edge="1" parent="dNxyNK7c78bLwvsdeMH5-22" source="hKaPWABOODFKhtMvyGc_-17" target="hKaPWABOODFKhtMvyGc_-15">
          <mxGeometry relative="1" as="geometry" />
        </mxCell>
        <mxCell id="hKaPWABOODFKhtMvyGc_-24" style="edgeStyle=orthogonalEdgeStyle;rounded=0;orthogonalLoop=1;jettySize=auto;html=1;entryX=1;entryY=0.5;entryDx=0;entryDy=0;endArrow=classicThin;endFill=1;" edge="1" parent="dNxyNK7c78bLwvsdeMH5-22" source="hKaPWABOODFKhtMvyGc_-17" target="hKaPWABOODFKhtMvyGc_-22">
          <mxGeometry relative="1" as="geometry" />
        </mxCell>
        <mxCell id="hKaPWABOODFKhtMvyGc_-17" value="Repository Facade" style="rounded=0;whiteSpace=wrap;html=1;" vertex="1" parent="dNxyNK7c78bLwvsdeMH5-22">
          <mxGeometry x="140" y="70" width="120" height="60" as="geometry" />
        </mxCell>
        <mxCell id="hKaPWABOODFKhtMvyGc_-22" value="Provider" style="rhombus;whiteSpace=wrap;html=1;" vertex="1" parent="dNxyNK7c78bLwvsdeMH5-22">
          <mxGeometry x="30" y="60" width="80" height="80" as="geometry" />
        </mxCell>
        <mxCell id="hKaPWABOODFKhtMvyGc_-50" value="Receive&lt;br&gt;Data&lt;br&gt;(3)" style="edgeStyle=orthogonalEdgeStyle;rounded=0;orthogonalLoop=1;jettySize=auto;html=1;entryX=0;entryY=0.5;entryDx=0;entryDy=0;startArrow=none;startFill=0;endArrow=openThin;endFill=0;elbow=vertical;exitX=1;exitY=0;exitDx=0;exitDy=0;" edge="1" parent="dNxyNK7c78bLwvsdeMH5-19" source="hKaPWABOODFKhtMvyGc_-22" target="hKaPWABOODFKhtMvyGc_-48">
          <mxGeometry relative="1" as="geometry">
            <Array as="points">
              <mxPoint x="110" y="390" />
            </Array>
          </mxGeometry>
        </mxCell>
        <mxCell id="hKaPWABOODFKhtMvyGc_-52" value="Fetch Data&lt;br&gt;(2)" style="edgeStyle=orthogonalEdgeStyle;rounded=0;orthogonalLoop=1;jettySize=auto;html=1;startArrow=none;startFill=0;endArrow=openThin;endFill=0;elbow=vertical;exitX=0;exitY=0.25;exitDx=0;exitDy=0;" edge="1" parent="dNxyNK7c78bLwvsdeMH5-19" source="dNxyNK7c78bLwvsdeMH5-26">
          <mxGeometry relative="1" as="geometry">
            <mxPoint x="180" y="220" as="sourcePoint" />
            <mxPoint x="70" y="570" as="targetPoint" />
          </mxGeometry>
        </mxCell>
        <mxCell id="hKaPWABOODFKhtMvyGc_-54" value="Receive&lt;br&gt;Data&lt;br&gt;(3)" style="edgeStyle=orthogonalEdgeStyle;rounded=0;orthogonalLoop=1;jettySize=auto;html=1;entryX=0.5;entryY=1;entryDx=0;entryDy=0;startArrow=none;startFill=0;endArrow=openThin;endFill=0;elbow=vertical;" edge="1" parent="dNxyNK7c78bLwvsdeMH5-19" source="hKaPWABOODFKhtMvyGc_-48" target="hKaPWABOODFKhtMvyGc_-53">
          <mxGeometry relative="1" as="geometry">
            <Array as="points">
              <mxPoint x="380" y="390" />
              <mxPoint x="380" y="262" />
            </Array>
          </mxGeometry>
        </mxCell>
        <mxCell id="hKaPWABOODFKhtMvyGc_-61" value="Call Event&lt;br&gt;(1)" style="edgeStyle=orthogonalEdgeStyle;rounded=0;orthogonalLoop=1;jettySize=auto;html=1;startArrow=none;startFill=0;endArrow=openThin;endFill=0;elbow=vertical;exitX=0.25;exitY=1;exitDx=0;exitDy=0;" edge="1" parent="dNxyNK7c78bLwvsdeMH5-19" source="hKaPWABOODFKhtMvyGc_-29" target="dNxyNK7c78bLwvsdeMH5-26">
          <mxGeometry x="-0.3368" relative="1" as="geometry">
            <mxPoint as="offset" />
          </mxGeometry>
        </mxCell>
        <mxCell id="hKaPWABOODFKhtMvyGc_-63" value="Display&lt;br&gt;(7)" style="edgeStyle=orthogonalEdgeStyle;rounded=0;orthogonalLoop=1;jettySize=auto;html=1;startArrow=none;startFill=0;endArrow=openThin;endFill=0;elbow=vertical;entryX=0.67;entryY=1.043;entryDx=0;entryDy=0;entryPerimeter=0;" edge="1" parent="dNxyNK7c78bLwvsdeMH5-19" source="hKaPWABOODFKhtMvyGc_-6" target="hKaPWABOODFKhtMvyGc_-29">
          <mxGeometry x="-0.5514" relative="1" as="geometry">
            <mxPoint x="300" y="120" as="targetPoint" />
            <Array as="points">
              <mxPoint x="305" y="250" />
            </Array>
            <mxPoint as="offset" />
          </mxGeometry>
        </mxCell>
        <mxCell id="hKaPWABOODFKhtMvyGc_-56" value="External Update&lt;br&gt;(6)" style="edgeStyle=orthogonalEdgeStyle;rounded=0;orthogonalLoop=1;jettySize=auto;html=1;startArrow=none;startFill=0;endArrow=openThin;endFill=0;elbow=vertical;" edge="1" parent="1" source="hKaPWABOODFKhtMvyGc_-53">
          <mxGeometry relative="1" as="geometry">
            <mxPoint x="660" y="350" as="targetPoint" />
          </mxGeometry>
        </mxCell>
        <mxCell id="hKaPWABOODFKhtMvyGc_-58" style="edgeStyle=orthogonalEdgeStyle;rounded=0;orthogonalLoop=1;jettySize=auto;html=1;startArrow=none;startFill=0;endArrow=openThin;endFill=0;elbow=vertical;" edge="1" parent="1" source="hKaPWABOODFKhtMvyGc_-57" target="hKaPWABOODFKhtMvyGc_-59">
          <mxGeometry relative="1" as="geometry">
            <mxPoint x="700" y="600" as="targetPoint" />
          </mxGeometry>
        </mxCell>
        <mxCell id="hKaPWABOODFKhtMvyGc_-57" value="Service" style="whiteSpace=wrap;html=1;aspect=fixed;" vertex="1" parent="1">
          <mxGeometry x="660" y="310" width="80" height="80" as="geometry" />
        </mxCell>
        <mxCell id="hKaPWABOODFKhtMvyGc_-59" value="Other feature" style="shape=process;whiteSpace=wrap;html=1;backgroundOutline=1;" vertex="1" parent="1">
          <mxGeometry x="640" y="660" width="120" height="60" as="geometry" />
        </mxCell>
      </root>
    </mxGraphModel>
  </diagram>
</mxfile>
